<svg width="323" height="307" viewBox="0 0 323 307" fill="none" xmlns="http://www.w3.org/2000/svg">
  <path d="M268.559 131.532C301.53 131.532 328.259 104.86 328.259 71.9601L268.559 71.9601L268.559 131.532Z" fill="#3699FF"/>
  <path d="M208.858 250.675C208.858 217.775 182.129 191.103 149.158 191.103L149.158 250.675L208.858 250.675Z" fill="#D6DA34"/>
  <path d="M341 72.3908C341 32.4101 308.539 2.46385e-05 268.497 2.28882e-05L268.497 72.3908L341 72.3908Z" fill="#6ED47C"/>
  <path d="M299.026 71.9602C299.026 55.1693 285.386 41.5581 268.559 41.5581L268.559 71.9602L299.026 71.9602Z" fill="#D5E155"/>
  <path d="M-2.60396e-06 309.353L-1.30198e-06 279.567C-5.82922e-07 263.117 13.3644 249.781 29.8501 249.781L29.8501 279.567C29.8501 296.017 16.4857 309.353 -2.60396e-06 309.353Z" fill="#6ED47C"/>
  <path d="M238.708 131.532L238.708 161.167C238.708 177.7 252.073 191.103 268.559 191.103L268.559 161.468C268.559 144.934 255.194 131.532 238.708 131.532Z" fill="#6ED47C"/>
  <path d="M328.259 191.103L268.559 191.103C235.587 191.103 208.858 217.775 208.858 250.675L268.559 250.675C301.53 250.675 328.259 224.004 328.259 191.103Z" fill="#6ED47C"/>
  <path d="M208.652 173.437C198.761 173.437 190.742 181.438 190.742 191.309C190.742 201.179 198.761 209.18 208.652 209.18C218.544 209.18 226.562 201.179 226.562 191.309C226.562 181.438 218.544 173.437 208.652 173.437Z" fill="#FF743C"/>
  <path d="M208.755 182.475C203.81 182.475 199.8 186.476 199.8 191.411C199.8 196.346 203.81 200.347 208.755 200.347C213.701 200.347 217.71 196.346 217.71 191.411C217.71 186.476 213.701 182.475 208.755 182.475Z" fill="#FFC700"/>
  <path d="M119.102 250.675C102.616 250.675 89.252 237.339 89.252 220.889C89.252 204.439 102.616 191.103 119.102 191.103C135.588 191.103 148.952 204.439 148.952 220.889L148.952 250.675L119.102 250.675Z" fill="#FF743C"/>
  <path d="M29.4077 249.921L50.9861 249.921C62.9034 249.921 72.5645 240.275 72.5645 228.376L50.9861 228.376C39.0688 228.376 29.4077 238.022 29.4077 249.921Z" fill="#A04AE3"/>
  <path d="M133.512 250.675C124.985 250.675 118.073 243.777 118.073 235.268C118.073 226.759 124.985 219.862 133.512 219.862C142.04 219.862 148.952 226.759 148.952 235.268L148.952 250.675L133.512 250.675Z" fill="#FFC700"/>
  <path d="M298.409 131.532C281.923 131.532 268.559 144.867 268.559 161.318C268.559 177.768 281.923 191.103 298.409 191.103C314.894 191.103 328.259 177.768 328.259 161.318C328.259 144.867 314.894 131.532 298.409 131.532Z" fill="#FF743C"/>
  <path d="M89.252 250.469C56.2808 250.469 29.5518 277.141 29.5518 310.041L89.252 310.041L89.252 250.469Z" fill="#FF743C"/>
  <path d="M208.652 310.041C208.652 277.141 181.923 250.469 148.952 250.469L148.952 310.041L208.652 310.041Z" fill="#3699FF"/>
  <path d="M148.952 250.469C115.98 250.469 89.252 277.141 89.252 310.041L148.952 310.041L148.952 250.469Z" fill="#6ED47C"/>
  <path d="M148.952 279.639C132.125 279.639 118.484 293.25 118.484 310.041L148.952 310.041L148.952 279.639Z" fill="#D5E155"/>
  <path d="M298.501 250.675C314.987 250.675 328.351 264.011 328.351 280.461C328.351 296.911 314.987 310.246 298.501 310.246C282.015 310.246 268.651 296.911 268.651 280.461L268.651 250.675L298.501 250.675Z" fill="#FFC700"/>
  <path d="M284.091 250.675C292.618 250.675 299.531 257.572 299.531 266.081C299.531 274.59 292.618 281.487 284.091 281.487C275.564 281.487 268.651 274.59 268.651 266.081L268.651 250.675L284.091 250.675Z" fill="#FF743C"/>
  <path d="M208.652 280.255C208.652 296.705 222.017 310.041 238.502 310.041C254.988 310.041 268.353 296.705 268.353 280.255C268.353 263.805 254.988 250.469 238.502 250.469C222.017 250.469 208.652 263.805 208.652 280.255Z" fill="#FF743C"/>
  <path d="M225.34 45.6754L225.34 88.7651C225.34 112.563 244.662 131.855 268.497 131.855L268.497 88.7651C268.497 64.9675 249.174 45.6754 225.34 45.6754Z" fill="#A04AE3"/>
  <path d="M246.918 88.7649L246.918 110.201C246.918 122.16 256.579 131.855 268.496 131.855L268.496 110.419C268.496 98.4593 258.835 88.7649 246.918 88.7649Z" fill="#6ED47C"/>
</svg>
